<svg viewBox="0 0 915.85 196.25" xmlns="http://www.w3.org/2000/svg"><g fill="#FFF"><path d="M94.31 196.25C34.344 196.25 0 157 0 98.943 0 39.795 34.89 0 93.219 0c50.427 0 80.682 29.71 85.86 70.867h-41.158c-3.543-21.532-17.717-35.705-44.157-35.705-34.344 0-52.606 25.35-52.606 63.237 0 39.25 19.352 64.053 53.697 64.053 29.71 0 41.703-19.352 45.247-42.52h41.159c-4.635 51.242-38.434 76.319-86.951 76.319M252.94 38.16v42.794h83.134v32.709H252.94v44.428h91.585v35.435H212.327V2.731h132.198v35.435H252.94M690.956 119.113L664.79 42.521l-26.166 76.592zm10.902 32.435H627.72l-14.446 41.977h-42.249L640.531 2.73h48.517l69.233 190.795h-41.976l-14.447-41.977M915.817 157.272v36.253H781.434V2.73h41.159v154.542h93.219M467.642.002c-50.426 0-80.682 29.71-85.86 70.868h41.158c3.544-21.532 17.717-35.707 44.156-35.707 34.345 0 52.607 25.35 52.607 63.237 0 39.25-19.353 64.054-53.697 64.054-29.386 0-50.024-16.885-49.264-41.702h57.169V92.499H379.6c0 14.293-.884 28.088 2.296 42.162 2.285 10.114 6.156 19.917 11.997 28.516 11.123 16.377 28.622 26.481 47.756 30.585 8.175 1.753 16.55 2.49 24.901 2.49 59.967 0 94.31-39.249 94.31-97.306 0-59.148-34.889-98.944-93.22-98.944"/></g></svg>